<svg width="136" height="44" viewBox="0 0 136 44" fill="none" xmlns="http://www.w3.org/2000/svg">
<path d="M1.664 42V36.04H2.448V42H1.664ZM10.7734 42V36.04H11.4294L14.8534 40.856L14.5574 40.888V36.04H15.3494V42H14.6934L11.2854 37.152L11.5574 37.12V42H10.7734ZM24.7196 42V36.76H23.1036V36.04H27.1036V36.76H25.5116V42H24.7196ZM34.8593 42V36.04H38.7393V36.76H35.6433V38.648H38.5793V39.368H35.6433V41.28H38.7393V42H34.8593ZM46.7109 42V36.04H47.4949V41.28H50.1109V42H46.7109ZM57.9921 42V36.04H58.7761V41.28H61.3921V42H57.9921ZM69.2734 42V36.04H70.0574V42H69.2734ZM81.1348 42.096C80.7134 42.096 80.3241 42.0213 79.9668 41.872C79.6094 41.7173 79.3001 41.5013 79.0388 41.224C78.7774 40.9467 78.5721 40.6213 78.4228 40.248C78.2788 39.8747 78.2068 39.4667 78.2068 39.024C78.2068 38.576 78.2788 38.1653 78.4228 37.792C78.5668 37.4187 78.7694 37.0933 79.0308 36.816C79.2921 36.5387 79.6014 36.3253 79.9588 36.176C80.3161 36.0213 80.7054 35.944 81.1268 35.944C81.5374 35.944 81.9054 36.016 82.2308 36.16C82.5614 36.304 82.8388 36.4907 83.0628 36.72C83.2921 36.9493 83.4548 37.1947 83.5508 37.456L82.8468 37.8C82.7081 37.4533 82.4921 37.1787 82.1988 36.976C81.9054 36.7733 81.5481 36.672 81.1268 36.672C80.7108 36.672 80.3401 36.7707 80.0148 36.968C79.6948 37.1653 79.4441 37.44 79.2628 37.792C79.0814 38.144 78.9908 38.5547 78.9908 39.024C78.9908 39.488 79.0814 39.896 79.2628 40.248C79.4494 40.6 79.7028 40.8747 80.0228 41.072C80.3481 41.2693 80.7188 41.368 81.1348 41.368C81.4974 41.368 81.8254 41.2907 82.1188 41.136C82.4121 40.9813 82.6441 40.768 82.8148 40.496C82.9854 40.224 83.0708 39.9093 83.0708 39.552V39.184L83.4308 39.52H81.1268V38.84H83.8628V39.368C83.8628 39.784 83.7908 40.16 83.6468 40.496C83.5028 40.832 83.3054 41.12 83.0548 41.36C82.8041 41.5947 82.5134 41.776 82.1828 41.904C81.8521 42.032 81.5028 42.096 81.1348 42.096ZM91.9218 42V36.04H95.8018V36.76H92.7058V38.648H95.6418V39.368H92.7058V41.28H95.8018V42H91.9218ZM103.773 42V36.04H104.429L107.853 40.856L107.557 40.888V36.04H108.349V42H107.693L104.285 37.152L104.557 37.12V42H103.773ZM119.424 42.096C119.002 42.096 118.613 42.0213 118.256 41.872C117.904 41.7173 117.594 41.5013 117.328 41.224C117.066 40.9467 116.864 40.6213 116.72 40.248C116.576 39.8747 116.504 39.4667 116.504 39.024C116.504 38.576 116.576 38.1653 116.72 37.792C116.864 37.4187 117.066 37.0933 117.328 36.816C117.589 36.5387 117.898 36.3253 118.256 36.176C118.613 36.0213 119.002 35.944 119.424 35.944C119.834 35.944 120.202 36.016 120.528 36.16C120.858 36.304 121.136 36.4907 121.36 36.72C121.589 36.9493 121.752 37.1947 121.848 37.456L121.128 37.784C120.989 37.4533 120.773 37.1867 120.48 36.984C120.186 36.776 119.834 36.672 119.424 36.672C119.008 36.672 118.637 36.7707 118.312 36.968C117.992 37.1653 117.741 37.44 117.56 37.792C117.378 38.144 117.288 38.5547 117.288 39.024C117.288 39.488 117.378 39.896 117.56 40.248C117.741 40.6 117.992 40.8747 118.312 41.072C118.637 41.2693 119.008 41.368 119.424 41.368C119.834 41.368 120.186 41.2667 120.48 41.064C120.773 40.856 120.989 40.5867 121.128 40.256L121.848 40.584C121.752 40.8453 121.589 41.0907 121.36 41.32C121.136 41.5493 120.858 41.736 120.528 41.88C120.202 42.024 119.834 42.096 119.424 42.096ZM129.914 42V36.04H133.794V36.76H130.698V38.648H133.634V39.368H130.698V41.28H133.794V42H129.914Z" fill="#FBFBFB"/>
<path d="M12.5324 31.7019C10.6085 31.7019 8.79463 31.3584 7.09067 30.6713C5.4142 29.9567 3.95758 28.9536 2.72084 27.6619C1.51158 26.3702 0.604631 24.8448 0 23.0859L5.23555 20.7361C6.00508 22.4126 7.06319 23.7318 8.40987 24.6937C9.78403 25.6556 11.2956 26.1366 12.9446 26.1366C13.8241 26.1366 14.5799 25.9991 15.212 25.7243C15.8441 25.4495 16.3388 25.0784 16.6961 24.6112C17.0533 24.1165 17.232 23.5394 17.232 22.8798C17.232 22.1652 17.0121 21.5606 16.5724 21.0659C16.1327 20.5437 15.4456 20.1315 14.5111 19.8291L8.49232 17.8504C6.04631 17.0533 4.20493 15.9265 2.96819 14.4699C1.73144 12.9858 1.11307 11.2132 1.11307 9.15192C1.11307 7.33802 1.5528 5.74399 2.43227 4.36983C3.33921 2.99567 4.5897 1.92383 6.18373 1.1543C7.80524 0.384765 9.66035 0 11.7491 0C13.5905 0 15.2944 0.316057 16.861 0.948171C18.4275 1.58029 19.7742 2.47349 20.901 3.62779C22.0553 4.78208 22.921 6.16998 23.4982 7.7915L18.3038 10.1413C17.7267 8.71218 16.861 7.59911 15.7067 6.8021C14.5524 5.9776 13.2332 5.56535 11.7491 5.56535C10.8971 5.56535 10.1413 5.70277 9.48171 5.9776C8.82212 6.25243 8.31368 6.65094 7.95639 7.17312C7.59911 7.66782 7.42047 8.24497 7.42047 8.90457C7.42047 9.61913 7.65408 10.2512 8.12129 10.8009C8.58851 11.3231 9.28933 11.7353 10.2238 12.0377L16.1189 13.934C18.5924 14.731 20.4338 15.8441 21.643 17.2732C22.8798 18.7023 23.4982 20.4475 23.4982 22.5088C23.4982 24.2952 23.0309 25.8892 22.0965 27.2908C21.1621 28.665 19.8704 29.7506 18.2214 30.5476C16.5999 31.3171 14.7035 31.7019 12.5324 31.7019Z" fill="#FBFBFB"/>
<path d="M63.1716 31.2072V0H69.3553V31.2072H63.1716Z" fill="#FBFBFB"/>
<path d="M80.9298 31.2072L72.0665 8.69844H78.7449L84.8874 25.7243H82.3315L88.474 8.69844H95.1524L86.289 31.2072H80.9298Z" fill="#FBFBFB"/>
<path d="M108.314 31.7019C105.923 31.7019 103.848 31.1797 102.089 30.1354C100.33 29.0635 98.9698 27.6344 98.0078 25.848C97.0459 24.0616 96.565 22.0828 96.565 19.9116C96.565 17.658 97.0597 15.6517 98.0491 13.8928C99.0659 12.1338 100.426 10.7459 102.13 9.72906C103.834 8.71218 105.758 8.20374 107.902 8.20374C109.688 8.20374 111.268 8.49232 112.643 9.06947C114.017 9.61913 115.171 10.4024 116.106 11.4193C117.067 12.4362 117.796 13.6179 118.29 14.9646C118.785 16.2838 119.033 17.7267 119.033 19.2932C119.033 19.733 119.005 20.1727 118.95 20.6124C118.923 21.0247 118.854 21.382 118.744 21.6843H101.883V17.1495H115.24L112.313 19.2932C112.588 18.1114 112.574 17.0671 112.272 16.1601C111.969 15.2257 111.433 14.4974 110.664 13.9752C109.922 13.4256 109.001 13.1507 107.902 13.1507C106.83 13.1507 105.909 13.4118 105.14 13.934C104.37 14.4562 103.793 15.2257 103.408 16.2426C103.024 17.2595 102.872 18.4962 102.955 19.9528C102.845 21.2171 102.996 22.3301 103.408 23.292C103.821 24.2539 104.453 25.0097 105.305 25.5594C106.157 26.0816 107.187 26.3427 108.396 26.3427C109.496 26.3427 110.43 26.1228 111.2 25.6831C111.997 25.2433 112.615 24.6387 113.055 23.8692L118.002 26.219C117.562 27.3183 116.861 28.2802 115.899 29.1047C114.965 29.9292 113.852 30.5751 112.56 31.0423C111.268 31.482 109.853 31.7019 108.314 31.7019Z" fill="#FBFBFB"/>
<path d="M122.674 31.2072V8.69844H128.445V14.0989L128.033 13.3156C128.528 11.4193 129.339 10.1413 130.465 9.48171C131.62 8.79463 132.98 8.45109 134.547 8.45109H135.866V13.8103H133.928C132.417 13.8103 131.194 14.2775 130.259 15.212C129.325 16.1189 128.858 17.4106 128.858 19.0871V31.2072H122.674Z" fill="#FBFBFB"/>
<path d="M55.5823 10.5948L42.8978 3.45973L30.2132 10.5948M55.5823 10.5948V24.8649L42.8978 32M55.5823 10.5948L42.8978 17.7299M42.8978 32L30.2132 24.8649V10.5948M42.8978 32V17.7299M30.2132 10.5948L42.8978 17.7299" stroke="#D3191C" stroke-width="2.37836" stroke-linecap="round" stroke-linejoin="round"/>
</svg>
