<svg width="14" height="12" viewBox="0 0 14 12" fill="none" xmlns="http://www.w3.org/2000/svg">
<path d="M7.79312 0.319767C7.98065 0.11502 8.23496 0 8.50013 0C8.7653 0 9.01961 0.11502 9.20714 0.319767L13.7072 5.23444C13.8947 5.43925 14 5.717 14 6.00659C14 6.29619 13.8947 6.57394 13.7072 6.77874L9.20714 11.6934C9.01854 11.8924 8.76593 12.0024 8.50373 12C8.24153 11.9975 7.99071 11.8826 7.8053 11.6801C7.61989 11.4776 7.51472 11.2037 7.51244 10.9173C7.51016 10.631 7.61096 10.3551 7.79312 10.1491L10.5002 7.09874H1.00002C0.734795 7.09874 0.480437 6.98368 0.292898 6.77886C0.105358 6.57404 0 6.29625 0 6.00659C0 5.71694 0.105358 5.43915 0.292898 5.23433C0.480437 5.02951 0.734795 4.91444 1.00002 4.91444H10.5002L7.79312 1.86407C7.60565 1.65926 7.50033 1.38152 7.50033 1.09192C7.50033 0.802318 7.60565 0.524575 7.79312 0.319767Z" fill="#D3191C"/>
</svg>
