<svg width="8" height="5" viewBox="0 0 8 5" fill="none" xmlns="http://www.w3.org/2000/svg">
<path d="M7.78682 0.195194C7.92332 0.320215 8 0.489756 8 0.666535C8 0.843313 7.92332 1.01285 7.78682 1.13788L4.51037 4.13792C4.37383 4.2629 4.18867 4.33312 3.9956 4.33312C3.80254 4.33312 3.61738 4.2629 3.48084 4.13792L0.204385 1.13788C0.0717561 1.01214 -0.0016319 0.843735 2.70208e-05 0.668934C0.00168594 0.494133 0.0782589 0.326922 0.213255 0.203315C0.34825 0.0797078 0.530867 0.00959468 0.721773 0.00807572C0.912678 0.00655675 1.0966 0.0737537 1.23392 0.195194L3.2675 1.99989C3.50008 2.16656 3.81446 2.33309 4 2.33309C4.18554 2.33309 4.50008 2.16656 4.7237 1.99989L6.75729 0.195194C6.89383 0.0702116 7.07899 0 7.27206 0C7.46512 0 7.65028 0.0702116 7.78682 0.195194Z" fill="#D3191C"/>
</svg>
